<?xml version="1.0" encoding="utf-8"?>
<!-- Generator: Adobe Illustrator 22.0.1, SVG Export Plug-In . SVG Version: 6.00 Build 0)  -->
<svg version="1.1" id="Layer_1" xmlns="http://www.w3.org/2000/svg" xmlns:xlink="http://www.w3.org/1999/xlink" x="0px" y="0px"
	 viewBox="0 0 177.8 188.7" style="enable-background:new 0 0 177.8 188.7;" xml:space="preserve">
<style type="text/css">
	.st0{fill:#FFFF00;}
</style>
<g>
	<polygon class="st0" points="89.9,141.9 43.5,166.2 52.4,114.6 14.9,78 66.7,70.5 89.9,23.5 113.1,70.5 164.9,78 127.4,114.6 
		136.2,166.2 	"/>
	<path d="M89.9,24.7l22.6,45.8l0.2,0.5l0.5,0.1l50.6,7.3l-36.6,35.7l-0.4,0.4l0.1,0.5l8.6,50.4l-45.2-23.8l-0.5-0.2l-0.5,0.2
		l-45.2,23.8l8.6-50.4l0.1-0.5l-0.4-0.4L15.9,78.4L66.5,71L67,71l0.2-0.5L89.9,24.7 M89.9,22.4L66.4,70.1l-52.6,7.6l38,37.1l-9,52.4
		l47-24.7l47,24.7l-9-52.4l38-37.1l-52.6-7.6L89.9,22.4L89.9,22.4z"/>
</g>
</svg>
