<?xml version="1.0" encoding="utf-8"?>
<!-- Generator: Adobe Illustrator 22.0.1, SVG Export Plug-In . SVG Version: 6.00 Build 0)  -->
<svg version="1.1" id="Layer_1" xmlns="http://www.w3.org/2000/svg" xmlns:xlink="http://www.w3.org/1999/xlink" x="0px" y="0px"
	 viewBox="0 0 200 100" style="enable-background:new 0 0 200 100;" xml:space="preserve">
<g>
	<path d="M29.4,57.8L6.8,57.6c-0.3,0-0.5-0.1-0.5-0.4l-0.2-1.1c-0.1-0.4,0.1-0.5,0.5-0.5l6,0l2.7-8.2c0.1-0.3,0.2-0.5,0.4-0.6
		c0.2-0.1,0.4-0.2,0.8-0.2l4.8,0c0.4,0,0.6,0.1,0.7,0.2c0.1,0.1,0.1,0.4,0,0.6l-2.7,8.2L30,55.7c0.2,0,0.4,0,0.4,0.1
		c0.1,0.1,0.1,0.2,0,0.3l-0.4,1.2c-0.1,0.2-0.1,0.3-0.3,0.4C29.7,57.7,29.6,57.8,29.4,57.8z M26.9,53.1l-4.2,0
		c-0.4,0-0.6-0.1-0.6-0.3c0-0.2,0-0.5,0.3-0.8c1.3-2.4,2.4-4.9,3.3-7.7l1.1-3.5l-13.1-0.1c-0.3,0-0.5-0.1-0.5-0.4L13,39.2
		c0-0.4,0.1-0.5,0.5-0.5l20,0.2c0.4,0,0.6,0.1,0.7,0.2c0.1,0.1,0.1,0.4,0,0.6l-1.4,4.5c-0.5,1.4-1.1,2.9-1.9,4.5
		c-0.8,1.6-1.5,2.8-2.1,3.6C28.3,52.8,27.7,53.1,26.9,53.1z"/>
	<path d="M32.9,56.4c-0.1-0.5,0-1,0.2-1.6c0.2-0.6,0.5-1.1,0.9-1.6c0.4-0.5,0.9-0.9,1.4-1.2c0.6-0.3,1.2-0.6,1.9-0.8
		s1.5-0.4,2.4-0.5c0.9-0.1,1.8-0.2,2.8-0.2s2-0.1,3.3,0c1.2,0,2.3,0,3.2,0.1c0.9,0.1,1.8,0.1,2.6,0.3c0.8,0.1,1.5,0.3,2.1,0.5
		s1,0.5,1.4,0.8c0.4,0.3,0.6,0.7,0.7,1.2c0.1,0.5,0,1-0.2,1.6c-0.2,0.6-0.5,1.1-0.9,1.6c-0.4,0.5-0.9,0.8-1.4,1.2
		c-0.6,0.3-1.2,0.6-1.9,0.8c-0.7,0.2-1.5,0.4-2.4,0.5c-0.9,0.1-1.9,0.2-2.8,0.2c-0.9,0-2,0.1-3.3,0c-1.2,0-2.3,0-3.2-0.1
		C38.7,59,37.8,59,37,58.8c-0.8-0.1-1.5-0.3-2.1-0.5c-0.5-0.2-1-0.5-1.4-0.8S32.9,56.8,32.9,56.4z M35.9,48.2
		c-0.8-1-0.9-2.5-0.3-4.5s1.7-3.4,3.2-4.4c1.5-1,3.6-1.4,6.5-1.4c2.9,0,4.7,0.5,5.6,1.5c0.9,1,1,2.5,0.4,4.4s-1.7,3.4-3.3,4.4
		s-3.8,1.5-6.6,1.5C38.5,49.7,36.7,49.2,35.9,48.2z M48.5,55.7L49,54c0.1-0.3,0.1-0.5,0.1-0.7c0-0.2-0.2-0.3-0.4-0.5
		c-0.2-0.2-0.7-0.3-1.3-0.4c-0.6-0.1-1.4-0.1-2.4-0.1c-1.3,0-2.3,0.1-3,0.2c-0.7,0.1-1.3,0.3-1.5,0.5c-0.3,0.2-0.4,0.5-0.6,0.9
		l-0.5,1.7c-0.1,0.3-0.1,0.5-0.1,0.6c0,0.2,0.2,0.3,0.4,0.5c0.2,0.2,0.7,0.3,1.3,0.4c0.6,0.1,1.4,0.1,2.4,0.1c1.3,0,2.3-0.1,3-0.2
		c0.7-0.1,1.3-0.3,1.5-0.5C48.2,56.4,48.4,56.1,48.5,55.7z M43,40.8l-2,6.1c-0.1,0.3,0,0.5,0.2,0.7c0.3,0.2,0.6,0.2,0.9,0.2
		s0.7-0.1,1.1-0.2c0.4-0.2,0.6-0.4,0.7-0.6l2-6.1c0.1-0.3,0-0.5-0.2-0.7c-0.3-0.2-0.6-0.2-0.9-0.2s-0.7,0.1-1.1,0.2
		C43.3,40.3,43.1,40.5,43,40.8z M54.8,38.6l4.3,0c0.4,0,0.6,0.1,0.7,0.2c0.1,0.1,0.1,0.4,0,0.6l-0.5,1.5l1.4,0
		c0.4,0,0.5,0.2,0.4,0.5l-0.4,1.2c-0.1,0.4-0.4,0.6-0.8,0.6l-1.4,0L58,45.2l1.4,0c0.4,0,0.5,0.2,0.4,0.5l-0.4,1.2
		c-0.1,0.4-0.4,0.6-0.8,0.6l-1.4,0l-0.6,1.9c-0.1,0.3-0.2,0.5-0.4,0.7c-0.2,0.2-0.5,0.2-0.8,0.2l-4.3,0c-0.4,0-0.6-0.1-0.7-0.2
		c-0.1-0.2-0.1-0.4,0-0.7l3.2-9.9c0.1-0.3,0.2-0.5,0.4-0.6C54.2,38.7,54.5,38.6,54.8,38.6z"/>
	<path d="M59.6,48.4c1.2-3.6,2.6-6.2,4.2-7.7c1.6-1.5,3.9-2.3,6.8-2.3c3,0,4.8,0.8,5.4,2.4c0.7,1.6,0.4,4.2-0.7,7.7
		c-1.2,3.6-2.6,6.1-4.3,7.7c-1.7,1.6-4,2.4-7,2.3c-2.9,0-4.7-0.8-5.3-2.4C58.2,54.5,58.4,52,59.6,48.4z M68.4,41.4l-4.6,14
		c-0.1,0.4,0,0.7,0.4,0.9c0.4,0.2,0.9,0.2,1.4,0c0.5-0.2,0.9-0.5,1-0.9l4.6-14c0.1-0.4,0-0.7-0.4-0.9s-0.9-0.2-1.4,0
		S68.5,41,68.4,41.4z M80.8,38.8l4.3,0c0.4,0,0.6,0.1,0.7,0.2s0.1,0.4,0,0.6L79.8,58c-0.1,0.3-0.2,0.5-0.4,0.7s-0.5,0.2-0.8,0.2
		l-4.3,0c-0.4,0-0.6-0.1-0.7-0.2c-0.1-0.2-0.1-0.4,0-0.7l5.9-18.3c0.1-0.3,0.2-0.5,0.4-0.6C80.2,38.9,80.4,38.8,80.8,38.8z"/>
	<path d="M104.3,40l-1.3,4.1c-0.2,0.5-0.3,0.9-0.5,1.4c-0.2,0.5-0.3,0.9-0.4,1.4c-0.1,0.5-0.3,0.9-0.4,1.4c-0.1,0.5-0.2,0.9-0.3,1.4
		c-0.1,0.4-0.2,0.9-0.2,1.3s-0.1,0.9-0.1,1.3s0,0.8,0,1.2c0,0.4,0.1,0.8,0.2,1.2c0.1,0.4,0.2,0.7,0.4,1.1c0.2,0.4,0.4,0.7,0.6,1
		c0.2,0.3,0.2,0.5-0.1,0.8l-0.7,0.5c-0.2,0.2-0.5,0.3-0.7,0.2c-0.8-0.2-1.6-0.6-2.4-1.3c-0.8-0.7-1.4-1.6-1.6-2.7
		c-1,1.1-2.3,2.1-3.7,2.8c-1.4,0.7-2.6,1.1-3.6,1.3c-0.3,0-0.5,0-0.6-0.2l-0.3-0.6c-0.1-0.2,0-0.5,0.4-0.7c0.9-0.5,1.8-1.2,2.5-2
		c0.8-0.8,1.4-1.5,1.9-2.3c0.5-0.7,1-1.6,1.5-2.8s0.9-2,1.1-2.7c0.2-0.7,0.6-1.7,1-2.9l1.1-3.3l-0.2-1c0-0.4,0.1-0.6,0.5-0.6l5.5,0
		c0.3,0,0.5,0.1,0.5,0.2C104.4,39.5,104.3,39.7,104.3,40z M109.5,39l3.1,0c0.4,0,0.6,0.1,0.7,0.2c0.1,0.1,0.1,0.4,0,0.6l-5.9,18.3
		c-0.1,0.3-0.2,0.5-0.4,0.7c-0.2,0.2-0.5,0.2-0.8,0.2l-3.1,0c-0.4,0-0.6-0.1-0.7-0.2c-0.1-0.2-0.1-0.4,0-0.7l3.1-9.6l-2,0
		c-0.3,0-0.5-0.1-0.5-0.4l-0.2-1.4c-0.1-0.4,0.1-0.5,0.5-0.5l3,0l2.1-6.4c0.1-0.3,0.2-0.5,0.4-0.6C108.8,39.1,109.1,39,109.5,39z
		 M115.2,39.1l3.1,0c0.4,0,0.6,0.1,0.7,0.2c0.1,0.1,0.1,0.4,0,0.6L113,58.3c-0.1,0.3-0.2,0.5-0.4,0.7c-0.2,0.2-0.5,0.2-0.8,0.2
		l-3.1,0c-0.4,0-0.6-0.1-0.7-0.2c-0.1-0.2-0.1-0.4,0-0.7l5.9-18.3c0.1-0.3,0.2-0.5,0.4-0.6C114.5,39.2,114.8,39.1,115.2,39.1z"/>
	<path d="M134.4,39.3l3.1,0c0.4,0,0.6,0.1,0.7,0.2c0.1,0.1,0.1,0.4,0,0.6l-5.9,18.3c-0.1,0.3-0.2,0.5-0.4,0.7
		c-0.2,0.2-0.5,0.2-0.8,0.2l-3.1,0c-0.4,0-0.6-0.1-0.7-0.2c-0.1-0.2-0.1-0.4,0-0.7l1.9-5.9l-2.7,0c-2.6,3.1-6.5,5-11.7,5.8
		c-0.2,0-0.3,0-0.4,0c-0.1,0-0.2-0.1-0.2-0.3l-0.1-0.5c-0.1-0.3,0.1-0.5,0.5-0.6c2.4-0.9,4.3-2.2,5.7-3.8c1.4-1.6,2.5-3.8,3.4-6.4
		l1.6-5l-3.9,0c-0.4,0-0.5-0.1-0.6-0.4l-0.2-1.1c-0.1-0.4,0.1-0.5,0.5-0.5l10.1,0.1c0.3,0,0.5,0.1,0.5,0.2c0.1,0.1,0,0.4-0.1,0.6
		l-0.9,2.7l1.4,0l1-3.1c0.1-0.3,0.2-0.5,0.4-0.6C133.8,39.3,134.1,39.3,134.4,39.3z M129.7,46.7c-0.4,1.2-0.9,2.4-1.5,3.5l1.8,0
		l1.6-4.8l-1.4,0L129.7,46.7z M140.2,39.3l3.1,0c0.4,0,0.6,0.1,0.7,0.2c0.1,0.1,0.1,0.4,0,0.6L138,58.5c-0.1,0.3-0.2,0.5-0.4,0.7
		c-0.2,0.2-0.5,0.2-0.8,0.2l-3.1,0c-0.4,0-0.6-0.1-0.7-0.2c-0.1-0.2-0.1-0.4,0-0.7l5.9-18.3c0.1-0.3,0.2-0.5,0.4-0.6
		C139.5,39.4,139.8,39.3,140.2,39.3z"/>
	<path d="M160.6,41.7l-4.3,0l0,0c-0.3,0.8-0.4,1.4-0.5,2c-0.1,0.5-0.1,1.1,0,1.8c0.1,0.6,0.4,1.2,0.9,1.8c0.5,0.6,1.2,1.1,2.1,1.6
		c0.3,0.2,0.3,0.4-0.1,0.7l-0.5,0.5c-0.3,0.3-0.5,0.4-0.9,0.4c-1.2-0.1-2.4-0.3-3.7-0.7s-2.2-1-2.9-1.8c-1.3,0.9-2.7,1.7-4.3,2.2
		c-1.6,0.5-3,0.9-4.2,1c-0.1,0-0.3,0-0.3,0c-0.1,0-0.1-0.1-0.2-0.1c0,0-0.1-0.1-0.1-0.3l-0.2-0.6c-0.1-0.3,0-0.5,0.4-0.7
		c1.1-0.4,2-0.9,2.9-1.4c0.8-0.5,1.5-1,2-1.5c0.5-0.5,0.9-1.1,1.4-1.7c0.4-0.7,0.7-1.2,0.9-1.6c0.2-0.4,0.4-1,0.6-1.6l-3.3,0
		c-0.3,0-0.5-0.1-0.5-0.4l-0.2-1.1c0-0.4,0.1-0.5,0.5-0.5l15.1,0.1c0.2,0,0.4,0,0.4,0.1c0.1,0.1,0.1,0.2,0,0.3l-0.4,1.2
		c-0.1,0.2-0.1,0.3-0.3,0.4C160.9,41.7,160.8,41.7,160.6,41.7z M141.6,57.2c-0.1-0.5,0-1,0.2-1.6c0.2-0.6,0.5-1.1,0.9-1.6
		c0.4-0.5,0.9-0.9,1.5-1.2c0.6-0.3,1.2-0.6,1.9-0.8c0.7-0.2,1.5-0.4,2.4-0.5c0.9-0.1,1.9-0.2,2.8-0.2s2-0.1,3.3,0s2.3,0,3.2,0.1
		c0.9,0.1,1.8,0.1,2.7,0.3c0.9,0.1,1.6,0.3,2.1,0.5c0.5,0.2,1,0.5,1.4,0.8c0.4,0.3,0.6,0.7,0.7,1.2c0.1,0.5,0,1-0.2,1.6
		c-0.2,0.6-0.5,1.1-0.9,1.6c-0.4,0.5-0.9,0.8-1.5,1.2s-1.2,0.6-1.9,0.8c-0.7,0.2-1.5,0.4-2.4,0.5c-0.9,0.1-1.9,0.2-2.8,0.2
		c-0.9,0-2,0.1-3.3,0s-2.3,0-3.2-0.1c-0.9-0.1-1.8-0.1-2.7-0.3c-0.9-0.1-1.6-0.3-2.1-0.5c-0.5-0.2-1-0.5-1.4-0.8
		C141.9,58.1,141.7,57.7,141.6,57.2z M157.4,56.6l0.5-1.7c0.1-0.3,0.1-0.6,0-0.9c-0.1-0.2-0.5-0.4-1.2-0.6c-0.7-0.2-1.6-0.2-2.9-0.3
		c-1.3,0-2.3,0.1-3.1,0.2c-0.8,0.1-1.3,0.3-1.6,0.5c-0.3,0.2-0.5,0.5-0.6,0.9l-0.5,1.7c-0.1,0.3-0.1,0.6,0,0.9
		c0.1,0.2,0.5,0.4,1.2,0.6s1.6,0.2,2.9,0.3c1.3,0,2.3-0.1,3.1-0.2c0.8-0.1,1.3-0.3,1.6-0.5C157.1,57.2,157.3,57,157.4,56.6z
		 M164.1,39.5l4.3,0c0.4,0,0.6,0.1,0.7,0.2c0.1,0.1,0.1,0.4,0,0.6l-3.2,9.9c-0.1,0.3-0.2,0.5-0.4,0.7c-0.2,0.2-0.5,0.2-0.8,0.2
		l-4.3,0c-0.4,0-0.6-0.1-0.7-0.2c-0.1-0.2-0.1-0.4,0-0.7l1.5-4.6l-3.2,0c-0.3,0-0.5-0.1-0.5-0.4l-0.2-1.1c0-0.4,0.1-0.5,0.5-0.5
		l4.1,0l1.1-3.3c0.1-0.3,0.2-0.5,0.4-0.6C163.5,39.6,163.7,39.5,164.1,39.5z"/>
	<path d="M190.5,52.4l-22.6-0.2c-0.3,0-0.5-0.1-0.5-0.4l-0.2-1.1c0-0.4,0.1-0.5,0.5-0.5l8.6,0.1l0.5-1.7l-6.4-0.1
		c-0.4,0-0.6-0.1-0.7-0.2c-0.1-0.2-0.1-0.4,0-0.7l2.1-6.4l-0.2-1c0-0.4,0.1-0.6,0.5-0.6l6.1,0c0.4,0,0.6,0.1,0.7,0.2
		c0.1,0.1,0.1,0.4,0,0.6l-0.6,1.8l7.7,0.1l0.3-1l-0.2-1c0-0.4,0.1-0.6,0.5-0.6l6.1,0c0.4,0,0.6,0.1,0.7,0.2c0.1,0.1,0.1,0.4,0,0.6
		l-2.3,7.1c-0.1,0.3-0.2,0.5-0.4,0.7c-0.2,0.2-0.5,0.2-0.8,0.2l-6.4-0.1l-0.5,1.7l8.2,0.1c0.2,0,0.4,0,0.4,0.1
		c0.1,0.1,0.1,0.2,0,0.3l-0.4,1.2c-0.1,0.2-0.1,0.3-0.3,0.4C190.9,52.3,190.7,52.4,190.5,52.4z M181.3,55.9l-13.3-0.1
		c-0.3,0-0.5-0.1-0.5-0.4l-0.2-1.1c0-0.4,0.1-0.5,0.5-0.5l20.3,0.2c0.4,0,0.6,0.1,0.7,0.2c0.1,0.1,0.1,0.4,0,0.6l-1.5,4.6
		c-0.1,0.3-0.2,0.5-0.4,0.7c-0.2,0.2-0.5,0.2-0.8,0.2l-5.1,0c-0.4,0-0.6-0.1-0.7-0.2c-0.1-0.2-0.1-0.4,0-0.7L181.3,55.9z M177,46.4
		l7.7,0.1l0.7-2.1l-7.7-0.1L177,46.4z"/>
</g>
</svg>
