<?xml version="1.0" encoding="utf-8"?>
<!-- Generator: Adobe Illustrator 22.0.1, SVG Export Plug-In . SVG Version: 6.00 Build 0)  -->
<svg version="1.1" id="Layer_1" xmlns="http://www.w3.org/2000/svg" xmlns:xlink="http://www.w3.org/1999/xlink" x="0px" y="0px"
	 viewBox="0 0 511.9 539.3" style="enable-background:new 0 0 511.9 539.3;" xml:space="preserve">
<style type="text/css">
	.st0{fill:#1B75BC;}
	.st1{fill:#3F73B5;}
	.st2{fill:#5471AF;}
	.st3{fill:#656FA9;}
	.st4{fill:#736DA4;}
	.st5{fill:#806A9F;}
	.st6{fill:#8C6899;}
	.st7{fill:#976594;}
	.st8{fill:#A2618F;}
	.st9{fill:#AD5D89;}
	.st10{fill:#B85884;}
	.st11{fill:#C2537F;}
	.st12{fill:#CC4D79;}
	.st13{fill:#D64674;}
	.st14{fill:#E03F6F;}
	.st15{fill:#EA356A;}
</style>
<g>
	<g>
		<path class="st0" d="M503.3,513c0-0.3-2-33.3-14.8-74.3c-11.8-37.8-35.3-90.5-80.7-126.3c-47.8-37.8-110.5-50.2-186.1-36.7
			c-74.4,13.2-131,1-168.3-36.1C16.6,202.7,5.7,147.9,3,108.4C0.2,65.6,6.1,31,6.1,30.7l1,0.2C7,31.2,1.2,65.7,4,108.4
			c2.6,39.3,13.5,93.9,50.1,130.4c37.1,36.9,93.4,49,167.4,35.9c76-13.5,138.8-1,186.9,36.9c45.6,36,69.2,88.9,81,126.8
			c12.8,41.1,14.8,74.2,14.8,74.5L503.3,513z"/>
	</g>
	<g>
		<path class="st1" d="M487.9,514.6c0-0.3-3.4-32.1-17.4-71.9c-12.9-36.7-37.6-87.8-82.3-123.3C343.5,284,287,270.3,220.5,278.8
			c-64.9,8.3-115.6-5.4-150.9-40.6c-37.2-37.2-50.1-92.1-54.4-131.6c-4.6-42.8-0.4-77.2-0.3-77.6l1,0.1c0,0.3-4.3,34.7,0.3,77.4
			c4.2,39.3,17.1,94,54.1,131c35,35,85.5,48.5,150,40.3c66.9-8.5,123.6,5.2,168.5,40.9c44.9,35.6,69.7,87,82.6,123.8
			c14,39.9,17.4,71.7,17.4,72.1L487.9,514.6z"/>
	</g>
	<g>
		<path class="st2" d="M472.5,516.3c-0.1-0.6-10.1-62.8-46.2-122.5c-33.3-55-96.3-119.1-207.1-111.7
			c-55.6,3.7-100.4-11.2-133.2-44.4c-37.5-37.8-52.5-93-58.4-132.6c-6.4-42.9-4-77.3-4-77.7l1,0.1c0,0.3-2.5,34.7,3.9,77.5
			c5.9,39.5,20.8,94.4,58.2,132c32.6,32.9,77.2,47.7,132.5,44.1c49.2-3.3,93.2,7.1,130.7,30.7c30,18.9,56.1,46.3,77.3,81.5
			c36.2,59.8,46.2,122.2,46.3,122.8L472.5,516.3z"/>
	</g>
	<g>
		<path class="st3" d="M457.2,518c-0.1-0.6-12.9-58.3-48.6-115.6c-33-52.8-92.8-115.9-190.6-117c-46.5-0.5-85.4-16.5-115.5-47.5
			c-37.6-38.7-54.6-94.3-62.4-134.1c-8.4-43.1-7.8-77.6-7.8-77.9l1,0c0,0.3-0.5,34.7,7.8,77.7c7.7,39.7,24.7,95.1,62.1,133.6
			c29.9,30.8,68.5,46.6,114.7,47.2c43.4,0.5,83.1,13.1,117.8,37.4c27.8,19.5,52.6,46.4,73.6,80.1c35.8,57.4,48.6,115.3,48.7,115.9
			L457.2,518z"/>
	</g>
	<g>
		<path class="st4" d="M441.8,519.6c-0.2-0.5-15.6-53.8-51-108.6c-32.6-50.6-89.3-112.8-174.1-122.4c-37.7-4.3-70.3-20.8-97.1-49.2
			c-21.4-22.7-39.1-53-52.6-90C44,86.4,41.1,24.9,41,24.2l1,0c0,0.6,2.9,62,25.9,124.9C89,207,132,278.1,216.8,287.6
			c37.6,4.2,72.9,19.1,104.9,44.1c25.6,20,49.1,46.5,69.9,78.8c35.5,55,51,108.3,51.1,108.9L441.8,519.6z"/>
	</g>
	<g>
		<path class="st5" d="M426.5,521.3c-0.2-0.5-18.4-49.3-53.4-101.7c-32.3-48.3-85.9-109.7-157.6-127.8c-31.9-8-60.4-27.2-84.8-56.9
			C111,211.1,94.1,180.6,80.2,144C56.5,81.9,49.8,23.2,49.8,22.6l1-0.1c0.1,0.6,6.8,59.1,30.4,121.2
			c21.8,57.2,62.8,129.2,134.5,147.2c31.8,8,62.8,25.1,92,50.8c23.3,20.5,45.6,46.6,66.2,77.4c35.1,52.5,53.4,101.4,53.5,101.9
			L426.5,521.3z"/>
	</g>
	<g>
		<path class="st6" d="M411.1,523c-0.2-0.4-21.2-44.7-55.9-94.7c-32-46.1-82.4-106.7-141.2-133.2c-26.1-11.8-50.5-33.5-72.6-64.6
			c-17.6-24.9-33.8-55.7-48.1-91.8C69.1,77.3,58.6,21.6,58.5,21l1-0.2c0.1,0.6,10.6,56.2,34.9,117.5
			c22.4,56.5,61.4,129.4,120.1,155.9c59,26.6,109.6,87.3,141.6,133.5c34.7,50.1,55.7,94.4,55.9,94.9L411.1,523z"/>
	</g>
	<g>
		<path class="st7" d="M395.8,524.7c-0.9-1.6-95.4-159.4-183-226.4c-45.9-35.1-83-109.1-106.1-165C81.7,72.8,67.4,19.9,67.3,19.4
			l1-0.3c0.1,0.5,14.4,53.4,39.4,113.8c23,55.8,60,129.6,105.8,164.5c87.8,67.1,182.3,225.1,183.3,226.7L395.8,524.7z"/>
	</g>
	<g>
		<path class="st8" d="M380.5,526.4c-1.1-1.4-106.3-141.6-169-224.9C148.7,218.1,76.7,19.8,76,17.8l0.9-0.3
			c0.7,2,72.7,200.1,135.3,283.4c62.7,83.3,167.9,223.5,169,224.9L380.5,526.4z"/>
	</g>
	<g>
		<path class="st9" d="M365.1,528.1c-1.2-1.2-117.2-123.8-155-223.5C172.5,205.1,85.6,18.1,84.8,16.2l0.9-0.4
			c0.9,1.9,87.7,188.9,125.4,288.5c37.7,99.5,153.6,221.9,154.8,223.1L365.1,528.1z"/>
	</g>
	<g>
		<path class="st10" d="M349.8,529.7c-0.3-0.3-32.4-26.6-65.6-67c-30.7-37.3-68.6-94.4-75.3-155C196.2,192,94.5,16.4,93.5,14.6
			l0.9-0.5c1,1.8,102.8,177.6,115.5,293.5C216.5,368,254.4,425,285,462.1c33.2,40.3,65.1,66.6,65.5,66.8L349.8,529.7z"/>
	</g>
	<g>
		<path class="st11" d="M334.5,531.4c-0.3-0.2-35.2-22.1-68.1-60c-19.3-22.3-34.2-45.7-44.2-69.5c-12.5-29.8-17.4-60.4-14.6-91
			c6.4-68.9-22.6-146.2-48.1-198.9c-27.6-57.2-57.1-98.5-57.4-99l0.8-0.6c0.3,0.4,29.8,41.9,57.5,99.1
			c25.5,52.9,54.6,130.4,48.1,199.5c-6.4,68.8,28.3,124.8,58.5,159.7c32.8,37.8,67.5,59.6,67.9,59.9L334.5,531.4z"/>
	</g>
	<g>
		<path class="st12" d="M319.2,533.1c-0.4-0.2-38-17.6-70.5-53.1c-19.1-20.9-32.7-43.8-40.5-68.2c-9.7-30.5-10.3-63.4-1.7-97.7
			c19.4-77.3-7.5-155.5-33.6-207.5c-28.3-56.3-61.5-94.9-61.9-95.2l0.8-0.7c0.3,0.4,33.7,39,62,95.4c16.6,33.2,28.3,65.9,34.7,97.3
			c8,39.3,7.6,76.6-1,110.9c-19.4,77.3,12.1,132.4,41.9,165c32.4,35.4,69.8,52.7,70.2,52.9L319.2,533.1z"/>
	</g>
	<g>
		<path class="st13" d="M303.9,534.8c-0.7-0.2-69.8-22.4-99.5-83.6c-18.6-38.1-18.3-83.2,0.9-133.9c32.5-85.8,7.5-164.8-19.2-216
			c-28.9-55.5-66-91.1-66.3-91.5l0.7-0.7c0.4,0.4,37.6,36.1,66.5,91.7c17,32.7,27.9,65.7,32.4,98.3c5.6,40.6,1.2,80.5-13.2,118.6
			c-19.1,50.4-19.4,95.2-1,133.1c29.6,60.8,98.3,82.8,98.9,83.1L303.9,534.8z"/>
	</g>
	<g>
		<path class="st14" d="M288.6,536.4c-0.7-0.1-69.8-13.7-97.8-69.2c-19.5-38.6-15-88,13.3-146.7c45.5-94.3,22.6-174.2-4.7-224.6
			C169.8,41.3,129,8.5,128.6,8.2l0.6-0.8c0.4,0.3,41.4,33.2,71.1,88.1c17.4,32.2,27.6,65.6,30.2,99.2c3.3,42-5.3,84.5-25.5,126.3
			c-28.2,58.4-32.7,107.5-13.3,145.8c27.8,55.1,96.4,68.6,97.1,68.7L288.6,536.4z"/>
	</g>
	<g>
		<path class="st15" d="M273.3,538.1c-0.7-0.1-70.3-6-97-56.5c-20.2-38.2-11.3-91.3,26.6-157.8c58.6-102.7,37.6-183.5,9.7-233.2
			c-30.2-53.8-74.8-83.7-75.3-84l0.6-0.8c0.4,0.3,45.3,30.3,75.6,84.4c17.8,31.7,27.2,65.4,28,100.2c0.9,43.4-11.8,88.5-37.7,134
			c-37.7,66.2-46.7,119-26.6,156.9c26.5,50,95.5,55.9,96.2,56L273.3,538.1z"/>
	</g>
</g>
</svg>
